<?xml version="1.0" standalone="no"?>
<!DOCTYPE svg PUBLIC "-//W3C//DTD SVG 1.1//EN" "http://www.w3.org/Graphics/SVG/1.1/DTD/svg11.dtd" >
<svg xmlns="http://www.w3.org/2000/svg" xmlns:xlink="http://www.w3.org/1999/xlink" version="1.1">
<metadata></metadata>
<defs>
<font id="fortuneandfamemedium" horiz-adv-x="20" >
<font-face units-per-em="2048" ascent="1638" descent="-410" />
<missing-glyph horiz-adv-x="860" />
<glyph horiz-adv-x="0" />
<glyph unicode="&#xd;" horiz-adv-x="681" />
<glyph unicode=" "  horiz-adv-x="860" />
<glyph unicode="&#x09;" horiz-adv-x="860" />
<glyph unicode="&#xa0;" horiz-adv-x="860" />
<glyph unicode="!" horiz-adv-x="346" d="M21.5 119q-11.5 43 23.5 61q16 6 35 4q27 -4 38 -27.5t0 -47t-40 -25.5q-45 -8 -56.5 35zM72 436q-18 20 0 142t61 264l55 180q12 39 22 157.5t28 141.5q51 61 75 -8q10 -27 13 -70q6 -109 -73 -356.5t-87 -333.5q-12 -119 -60 -129q-16 -4 -34 12z" />
<glyph unicode="#" horiz-adv-x="1370" d="M25 866q-10 18 4 41q20 33 123 39q90 4 119.5 37t54.5 158q23 108 39 149q14 39 46.5 36t39.5 -44q4 -31 -24 -96.5t-28 -108.5q0 -37 9.5 -46t44.5 -9q61 0 149 58.5t96 103.5q12 55 29.5 78.5t48.5 27.5q39 6 39 -28q0 -45 19.5 -46.5t64.5 44.5q72 68 92 30 q6 -8 6 -22q0 -10 -33.5 -41t-78.5 -64q-76 -53 -100.5 -83.5t-45.5 -94.5q-29 -94 -56.5 -240.5t-18 -161t52.5 -13.5t53 16q8 14 97 43.5t120 29.5q27 0 119 36t167 76t77 15q2 -23 -64 -63q-47 -29 -115.5 -58.5t-113.5 -48t-51 -30.5q-10 -16 -56 -17q-37 0 -129 -37.5 t-123 -48.5q-35 -10 -48 -33.5t-34 -109.5q-23 -102 -54.5 -162.5t-63.5 -60.5q-37 0 -39 32.5t33 57.5q25 20 34 43.5t9 77.5q0 61 -6.5 74.5t-39.5 17.5q-45 4 -133 -19q-66 -16 -83 -33.5t-46 -91.5q-31 -86 -62.5 -125.5t-53.5 -25.5q-25 14 -19 66.5t35 78.5 q41 37 38 77t-44 40q-39 0 -63.5 25.5t-18.5 60.5q4 18 21.5 25.5t66.5 7.5q57 0 71.5 10t30.5 62q20 74 23 170l2 98l-86 -10q-121 -16 -143 30zM311 518q8 -14 66 -16q14 -2 22 -2q59 -2 86 3t45 25q33 37 74 239t4 210q-25 6 -115 -31t-114 -63q-33 -33 -53 -168 q-2 -16 -7 -43q-20 -135 -8 -154z" />
<glyph unicode="$" horiz-adv-x="811" d="M21.5 305q-1.5 8 6 24.5t15.5 40t22.5 75t24.5 114.5q16 88 32.5 166t25 115t15.5 67.5t6 45t-5 25.5t-17 28q-37 53 -29.5 116.5t56.5 104.5q53 49 53 95t29 101q25 47 48.5 44t29.5 -54q4 -43 29.5 -56.5t56.5 11.5q33 27 122 21.5t163 -39.5q51 -23 68.5 -40.5 t17.5 -41.5q0 -45 -39 -66q-41 -16 -60.5 -2t-57.5 35.5t-76 17.5t-50 -39q-14 -37 -35 -221l-12 -108l84 -90q82 -90 82 -103q0 -29 -31 -81t-78 -103q-51 -55 -63.5 -87t-20.5 -126q-8 -98 -29.5 -156.5t-52.5 -58.5q-18 0 -10 57q33 193 23 207q-4 8 -27 8 q-37 0 -145 -59q-78 -41 -98.5 -44t-47.5 19q-16 16 -20 22.5t-5.5 14.5zM160 395q14 -14 96 29t98 72q18 35 19 178q0 88 -6.5 122t-26.5 52q-35 31 -65.5 27.5t-45.5 -37.5q-18 -51 -47.5 -241.5t-21.5 -201.5zM272.5 1105q-10.5 -69 20.5 -104q82 -90 100 68q4 35 4 84 q2 78 -15 93.5t-58 -27.5q-41 -45 -51.5 -114zM447 637q4 -14 26 -14q27 0 27 47q0 37 -15.5 43t-27.5 -27q-14 -35 -10 -49z" />
<glyph unicode="%" horiz-adv-x="841" d="M20 1020q0 76 7.5 109.5t27.5 58.5q53 59 111.5 92t103.5 37t77 -2t42 -17q20 -25 35.5 -101.5t3.5 -88.5q-20 -20 -20 -64q0 -29 -16.5 -65.5t-29 -62t-2.5 -33.5q6 -8 42 24.5t81 86t78 104.5q37 57 84 93t70 21q25 -14 17.5 -50t-42.5 -62q-33 -25 -157.5 -175.5 t-124.5 -164.5q0 -6 -25 -39t-67 -93.5t-70 -117.5q-27 -51 -64 -103.5t-67.5 -82t-36.5 -17.5q-8 10 50 134t140 274q74 135 35 100q-4 -2 -8 -6q-23 -23 -96 -23q-43 0 -70 11.5t-55 42.5q-35 37 -44.5 65.5t-9.5 114.5zM102 1030q-4 -74 31 -106q33 -31 68 -23t64.5 37 t50 81t20.5 109q0 92 -17 101q-8 6 -32.5 -21.5t-60.5 -61.5t-68 -36q-33 -4 -42.5 -17.5t-13.5 -62.5zM463.5 368.5q12.5 132.5 73.5 206.5q92 111 116 39q2 -4 2 -8q6 -27 69.5 -70.5t63.5 -72.5q0 -37 21 -49q14 -8 11 -52.5t-23 -154.5q-12 -63 -68.5 -122.5 t-103.5 -59.5q-84 0 -129 105.5t-32.5 238zM553 295q0 -150 55 -160q27 -4 60 31q44 49 32 209q-2 29 -11 39t-32 10q-61 -2 -82.5 -28.5t-21.5 -100.5z" />
<glyph unicode="&#x26;" horiz-adv-x="604" d="M20 1014q1 39 173 90q102 31 173.5 20.5t92.5 -59.5q12 -25 5 -49.5t-42 -77.5q-57 -84 -57 -111q0 -25 31.5 -50t60.5 -27q35 0 70.5 -59.5t35.5 -115.5q0 -63 -45 -131.5t-127 -126.5q-88 -66 -158.5 -51t-101.5 103q-18 53 -3 61t54 -33q25 -27 44.5 -34t45.5 -1 q59 14 121 86t62 127q0 35 -45 69t-103 44q-109 18 -120 57t69 127q61 66 67.5 86.5t-24.5 47.5q-16 14 -38.5 14t-70.5 -12q-170 -45 -170 6zM275 -84.5q3 36.5 38 61.5q41 29 59.5 21t18.5 -53q0 -43 -26.5 -66.5t-59.5 -11.5t-30 48.5zM436 1314.5q-2 40.5 23 65.5t69 19 q49 -6 53.5 -55.5t-42.5 -69.5q-45 -20 -74 -10q-27 10 -29 50.5z" />
<glyph unicode="'" horiz-adv-x="403" d="M27 761q-13 15 0 40l145 299q55 109 100 187.5t56 78.5q23 0 43 -27q27 -33 -8 -93t-56 -79q-26 -22 -26 -45q0 -16 -36 -67t-36 -68q0 -18 -63.5 -117.5t-82.5 -109.5q-23 -14 -36 1z" />
<glyph unicode="(" horiz-adv-x="534" d="M20 371q2 135 20.5 224t37 137t20.5 81q0 29 35 110t35 103q2 29 47 105.5t45 82.5t15.5 31t36 59.5t28.5 61.5q23 72 64.5 97.5t75.5 -5.5t34 -104q0 -49 -21.5 -73t-46.5 -3q-27 23 -55.5 -9t-85.5 -153q-2 -4 -24.5 -48t-29.5 -62.5t-29.5 -67.5t-34 -83t-29 -88 t-26.5 -103.5t-19.5 -108.5t-12.5 -121.5t0 -128.5q4 -127 13.5 -167t52.5 -101q59 -88 52 -96.5t-53 10t-95 123.5q-35 72 -42.5 119t-7.5 178z" />
<glyph unicode=")" horiz-adv-x="546" d="M23 -252q-18 18 81 119q63 66 137 187.5t74 162.5q0 18 33 90q63 131 80.5 474.5t-27.5 527.5q-27 102 -18.5 144t47.5 38q37 -6 57.5 -96t32.5 -301q23 -375 -55 -691.5t-242 -521.5q-55 -68 -118.5 -109.5t-81.5 -23.5z" />
<glyph unicode="*" horiz-adv-x="1374" d="M32 567.5q-42 184.5 68 302.5q70 72 99 52q16 -10 6 -45q-12 -47 41 -115t119 -84q117 -33 131 22q2 10 31.5 100.5t55 179.5t48 217t22.5 230q1 169 21 189q27 29 61.5 19.5t28.5 -42.5q-6 -37 -8 -325q0 -213 15 -337t49 -179.5t91 -55.5q47 0 157 59.5t167 112.5 q90 90 113 41q23 -47 -45 -180q-35 -68 -35 -96q0 -39 -60.5 -145.5t-109.5 -153.5q-66 -63 -65 -121.5t73 -149.5q72 -90 72 -118q0 -37 -64.5 -57.5t-175.5 -18.5q-94 2 -125 10t-67.5 44t-61.5 43t-92 3q-96 -8 -150 -47q-47 -31 -104 -44t-84 1q-16 10 -16 27.5t14 66.5 q12 41 28.5 74t22.5 47.5t13.5 25.5t-2 24.5t-19.5 25.5t-45 43q-176 170 -218 354.5zM113 606q4 -51 19 -84t33.5 -47t48.5 -50t54 -87q39 -78 80 -86l92 -19q115 -23 13 -118q-78 -72 -27 -80q57 -10 149 53q37 25 64 53l51 56l53 -62q33 -39 47.5 -46t32.5 9q20 16 48 -4 t51.5 -53t50 -52.5t43.5 -4.5q16 12 11 28.5t-18.5 28.5t-30.5 36.5t-26 49.5q-12 39 -39 61q-29 25 -25.5 77t36.5 69q37 20 37 47q0 10 17 25.5t44 27.5q49 20 102.5 97t53.5 126q0 20 -3.5 27.5t-18.5 6.5t-37.5 -11t-69.5 -33q-207 -104 -281 -20q-33 35 -50.5 107.5 t-24.5 125.5t-19 53q-8 0 -51 -85t-43 -101q0 -14 -58 -86q-35 -45 -57.5 -58.5t-63.5 -13.5q-51 0 -126.5 44t-75.5 75q0 23 -25 43q-41 35 -57 -31q-10 -37 -4 -94z" />
<glyph unicode="+" horiz-adv-x="829" d="M27 778q-16 43 16.5 62.5t114.5 15.5l100 -6l6 96q6 96 -31 156q-33 51 -36 80.5t20 54.5q23 20 52.5 20t47.5 -20q12 -18 28.5 -186t29.5 -181q18 -16 133 21q98 33 191.5 45t103.5 -6q20 -31 -35 -55.5t-125 -42t-78 -29.5q-8 -16 -60 -16.5t-91 -32.5 q-12 -8 -18.5 -16.5t-10.5 -16.5t-4 -23.5t1 -32t5 -47t8 -62.5t12.5 -87t14.5 -111.5t-19.5 -81t-56.5 6.5q-18 18 -25.5 92t-11.5 164t-14 125q-8 35 -22.5 43t-67.5 8q-154 0 -178 63z" />
<glyph unicode="," horiz-adv-x="303" d="M24 107q7 16 50 57q66 59 65.5 79t26.5 83q23 53 60.5 63t54.5 -33q10 -29 -49.5 -144.5t-104.5 -150.5q-43 -35 -60.5 -33.5t-35.5 38.5q-14 25 -7 41z" />
<glyph unicode="-" horiz-adv-x="915" d="M41 625q-51 57 33 57q35 0 96 -8q196 -27 479 20q111 16 178.5 12t67.5 -28q0 -23 -224.5 -74t-332.5 -51q-92 -2 -180 19.5t-117 52.5z" />
<glyph unicode="." horiz-adv-x="163" d="M21 274q-5 31 11.5 47.5t48.5 11.5t48 -26q16 -20 13 -31.5t-27.5 -36t-35.5 -27.5t-30 13q-23 18 -28 49z" />
<glyph unicode="/" horiz-adv-x="659" d="M31 313q6 8 20 31q55 88 94 170l142 281q4 8 44 78.5t67.5 126t27.5 67.5t35 67.5t45 114.5q15 72 33 105q14 29 51 29.5t47 -25.5q10 -27 -62 -176l-92 -197q-16 -35 -68.5 -122t-78.5 -140q-59 -119 -128 -238.5t-81 -146.5q-23 -49 -43.5 -64.5t-48.5 -5.5 q-23 8 -4 45z" />
<glyph unicode="0" horiz-adv-x="702" d="M25.5 687q13.5 122 33 258t19.5 165q2 33 10 49.5t20.5 21.5t38 22t52.5 44q49 53 82 39q18 -8 12 -35q-4 -25 12.5 -26.5t77.5 6.5q8 2 13 3t14.5 2t15.5 2t15.5 2t16.5 2t18 2t20.5 2t20.5 2t22 3l96 11l27 -68q18 -45 19 -82t-17 -143q-23 -125 -61 -279.5t-62 -220.5 q-63 -168 -157.5 -314.5t-137.5 -146.5q-20 0 -67.5 50.5t-82.5 111.5q-53 94 -68.5 244.5t-2 272.5zM79.5 502.5q2.5 -150.5 29.5 -176.5q18 -18 18 -50t51 -92l53 -59l52 37q74 55 171 291.5t140 468.5q18 96 20 169t-12 83q-29 18 -98.5 17t-122.5 -20q-61 -20 -93 -32.5 t-63.5 -35t-46 -42t-30 -63.5t-24.5 -87t-24 -125q-23 -133 -20.5 -283.5z" />
<glyph unicode="1" horiz-adv-x="473" d="M20.5 1055.5q-2.5 15.5 18 39t57.5 48.5q82 51 126 105.5t52.5 91t19 76.5t28.5 63q29 31 41 29.5t49 -38.5q39 -35 40 -61.5t-34 -75.5q-47 -63 -81 -286.5t-36 -485.5q-4 -307 -21.5 -312t-52.5 32q-25 27 -26.5 81t14.5 295q20 340 29.5 366t-4.5 50q-8 14 -27.5 10 t-62.5 -26q-39 -20 -70 -26.5t-44 1.5t-15.5 23.5z" />
<glyph unicode="2" horiz-adv-x="765" d="M20 401q0 25 16.5 41.5t61.5 36.5q76 35 133.5 82t83 86t60.5 95.5t57 84.5q31 37 73 160t42 174q0 104 -63.5 115.5t-159.5 -74.5q-45 -39 -78 -54t-52.5 -8t-23.5 38q-4 27 40 72.5t109.5 82.5t139 48.5t127.5 -31.5q29 -23 35 -50.5t4 -121.5q-2 -104 -18.5 -156.5 t-102.5 -226.5q-37 -70 -86 -140.5t-78 -110.5t-29 -57q0 -25 146.5 -95t232.5 -87q23 -4 39 -15t16 -22q0 -80 -247 11q-203 76 -251 85t-77 -18q-49 -43 -99.5 -24.5t-50.5 79.5z" />
<glyph unicode="3" horiz-adv-x="694" d="M27 377q-23 37 22 39q25 4 60 -8q70 -23 187.5 14t135.5 90q20 51 5 119.5t-52 93.5q-31 18 -44 18t-46 -22q-35 -23 -48.5 -19.5t-45.5 35.5q-31 31 -35 44.5t10 31.5q18 23 70.5 49.5t111.5 42.5q80 23 155 137.5t58 192.5q-4 31 -64.5 38t-115.5 -18q-33 -12 -48 -11 t-34 20q-27 25 -16.5 55.5t51.5 46.5q41 18 156 12q111 -4 142.5 -35.5t31.5 -136.5q-2 -156 -158 -317q-45 -49 -46 -73.5t34 -98.5q33 -70 34 -159t-32 -132q-29 -37 -136.5 -83t-162.5 -46q-41 0 -102.5 27.5t-77.5 52.5z" />
<glyph unicode="4" horiz-adv-x="864" d="M20 393q-6 29 41.5 84t77.5 55q23 0 177.5 155t154.5 179q0 25 27 47q20 16 99 154.5t91 144.5q18 10 18.5 47t18.5 72q14 29 61.5 34t57.5 -22q4 -14 -6.5 -58t-32 -153.5t-31.5 -240.5q-12 -143 -10 -184t22 -64q29 -31 26 -55.5t-42 -102.5q-29 -53 -40 -109.5 t-17 -174.5q-12 -209 -51 -213q-14 -2 -39 22q-14 16 -16.5 27.5t2.5 30t14.5 78t13.5 143.5l6 162l-100 -7q-74 -4 -207 -41.5t-209 -40.5q-63 0 -82.5 5.5t-24.5 25.5zM221 449q8 -8 52 8t113 41.5t114 31.5q96 16 131 52t45 135q12 110 12 189t-14 79t-69.5 -74.5 t-144.5 -189.5t-167 -182q-35 -33 -56.5 -58.5t-15.5 -31.5z" />
<glyph unicode="5" horiz-adv-x="847" d="M25 307q-12 63 9 68.5t56 -51.5q31 -53 69 -61.5t103 20.5q131 57 176 211q18 61 18.5 91.5t-16.5 90.5q-23 74 -59.5 105.5t-130.5 58.5q-82 23 -113 51q-25 20 -31 64t15 57q18 10 37.5 119.5t15.5 171.5q-4 49 2 62t33 15q38 6 61 33q41 51 56 -8q6 -18 6 -49 q0 -43 9 -61.5t36 -30.5q39 -20 122 -22.5t150 13.5q190 49 178 21q-10 -20 -135 -72q-102 -43 -181 -50t-194 15q-20 4 -32.5 -12t-26.5 -72q-18 -76 -7 -102.5t77 -52.5q100 -39 158.5 -129t60.5 -211q2 -164 -109.5 -292t-257.5 -128q-59 0 -100 37t-55 100z" />
<glyph unicode="6" horiz-adv-x="593" d="M21 492q2 49 20 139q16 74 32.5 127t27 72.5t16.5 36t6 28.5q0 10 43 110.5t119.5 221.5t144.5 151q76 35 125 8q41 -25 -2 -61q-16 -12 -39 -22q-90 -43 -171 -165t-179 -360q-33 -82 -46.5 -194.5t1.5 -192.5q20 -115 101 -124t163 93q29 37 41 74t18 105 q10 119 -15.5 160.5t-102.5 41.5q-70 0 -82.5 17.5t26.5 60.5q78 84 174 -20q59 -63 89 -193.5t-9 -154.5q-18 -10 -18 -43t-49 -96.5t-109 -108.5q-119 -90 -231 -2q-39 33 -54.5 62.5t-27.5 105.5q-14 74 -12 123z" />
<glyph unicode="7" horiz-adv-x="755" d="M20.5 1211q4.5 24 19.5 39.5t32.5 36t17.5 34.5q0 20 55 61q37 27 65 30t52.5 -11.5t48 -33.5t62.5 -39.5t86 -27.5q59 -8 75.5 1.5t53.5 72.5q94 162 145 -2q6 -25 -11 -54.5t-77 -92.5q-100 -106 -100 -119q0 -8 -36 -62.5t-46 -99.5l-10 -51l94 14q106 14 137 13.5 t37 -19.5q4 -12 -24.5 -30.5t-68.5 -33t-67 -14.5q-33 0 -102.5 -34.5t-91.5 -61.5q-20 -25 -59.5 -167t-51.5 -236q-10 -90 -39 -91q-16 0 -20 25t-2 102q4 80 11 117t21.5 77t24.5 93q12 61 8 76.5t-37 28.5q-43 16 -39 57q4 25 17.5 33t52.5 8q45 0 64.5 21.5t76.5 129.5 q78 152 69 177.5t-56 25.5q-33 0 -70 20.5t-60.5 37t-62.5 8.5t-86 -58q-35 -37 -53.5 -46t-32.5 3q-27 18 -22.5 42z" />
<glyph unicode="8" horiz-adv-x="782" d="M23.5 272.5q-5.5 24.5 3.5 118.5q6 68 20 116t28.5 66.5t25 34t10.5 25.5q0 12 55 76q47 53 45 89t-57 115q-68 100 -23 183q10 23 35 28.5t88 5.5q80 0 183.5 -26.5t191.5 -26.5q135 0 133 -35q0 -10 -19 -22q-25 -16 -49 -6q-25 8 -59.5 -11.5t-34.5 -41.5 q0 -10 -19.5 -28t-48.5 -34l-126 -65q-59 -31 -60 -70q2 -37 57.5 -120t116.5 -140q63 -59 64.5 -118.5t-62.5 -106.5q-76 -55 -163 -91t-152 -36q-51 0 -77 11t-60 44q-41 41 -46.5 65.5zM97 309.5q5 -22.5 30 -47.5q29 -29 73 -36t66 14q16 14 90 39q63 20 95 45.5 t36.5 49t-12 55.5t-41 58.5t-58.5 67.5t-52 72q-33 51 -68 50t-61 -54l-58 -105q-27 -53 -37 -135q-8 -51 -3 -73.5zM223 984.5q-2 -15.5 13 -58.5q23 -68 39 -77t118 58q37 25 54.5 37t25.5 23.5t5 16.5t-15 15q-33 23 -70 23q-23 0 -52.5 6t-51 5t-41.5 -17 q-23 -16 -25 -31.5z" />
<glyph unicode="9" horiz-adv-x="647" d="M29 150q-25 39 8 47q12 2 29 -2q63 -16 162.5 83t160.5 238q18 41 34.5 103.5t21 102.5t-4.5 46q-12 0 -36.5 -18.5t-63.5 -36t-86 -13.5l-68 5l-6 126q-12 288 166 478q49 51 79 54t85 -42q84 -66 102.5 -89.5t10.5 -53.5q-4 -14 -38 -228.5t-46 -238.5 q-16 -31 -16.5 -64t-59.5 -174q-57 -143 -159.5 -259t-170.5 -116q-72 0 -104 52zM265 873.5q9 -50.5 38 -50.5q31 0 67 29t58.5 69t33.5 79.5t-7 62.5q-21 23 -27 84q-6 68 -37 72q-16 2 -26 -29q-12 -33 -43 -78q-33 -49 -49.5 -118.5t-7.5 -120z" />
<glyph unicode=":" horiz-adv-x="403" d="M25 193.5q-10 29.5 10 56.5q12 12 57 8q41 -6 52.5 -42t-21.5 -62q-25 -20 -56.5 -5t-41.5 44.5zM246 903q12 31 69 25q51 -4 63.5 -37t-20.5 -78q-16 -20 -27.5 -24.5t-29.5 8.5q-35 23 -50 51t-5 55z" />
<glyph unicode=";" horiz-adv-x="600" d="M21.5 40q7.5 32 56.5 28q51 -4 104.5 72.5t53.5 154.5q0 74 18 121t59 41q25 -4 32 -15.5t5 -44.5q-4 -88 -25.5 -148.5t-72.5 -135.5q-63 -94 -103 -120t-90 -5q-45 20 -37.5 52zM479 905q8 27 24.5 26t51.5 -26q20 -16 23.5 -27.5t-9.5 -31.5q-23 -31 -49 -32 t-40.5 26.5t-0.5 64.5z" />
<glyph unicode="&#x3c;" horiz-adv-x="1013" d="M20 780q-4 51 28 75.5t87 12.5q47 -12 145.5 48.5t189.5 140.5t169 148.5t86 70.5q12 0 32.5 -23.5t20.5 -40.5q0 -16 -195.5 -173.5t-256.5 -188.5q-23 -12 -39.5 -27.5t-16.5 -27.5q0 -31 135.5 -134.5t305.5 -206t258 -130.5q23 -6 24.5 -12.5t-17 -25t-47 -14.5 t-124.5 43q-143 55 -244 125q-248 178 -320.5 221.5t-131.5 51.5q-57 8 -70.5 18t-18.5 49z" />
<glyph unicode="=" horiz-adv-x="1222" d="M31 637q20 33 63 27q106 -10 286.5 -2t262.5 26q96 20 227 44t172 36q94 29 148 4q35 -14 -19 -33q-16 -6 -43 -12q-29 -6 -106.5 -30.5t-310.5 -71.5q-563 -113 -672 -45q-33 20 -8 57zM39 969q4 27 29 32q37 10 356 15q381 6 387 14q10 8 67.5 -4t75.5 -27 q47 -37 -45 -45q-39 -4 -102 -4q-104 0 -364.5 -24.5t-327.5 -40.5q-37 -8 -59.5 18.5t-16.5 65.5z" />
<glyph unicode="&#x3e;" horiz-adv-x="1030" d="M23 365q-10 25 38 69.5t86 44.5q20 0 54.5 31t77.5 51q35 16 200.5 107.5t222.5 117.5q47 23 59.5 39.5t-10 24.5t-79.5 8q-80 0 -189.5 51.5t-167.5 114.5q-74 82 -86 105.5t4 54.5q23 43 50.5 32.5t66.5 -73.5q45 -78 116 -121t144.5 -56.5t145 -19.5t133 -19.5 t90.5 -43.5q41 -43 22 -74q-18 -31 -50.5 -45t-127.5 -33q-43 -8 -63.5 -13t-41 -13.5t-29.5 -14.5t-40 -23.5t-61 -35.5q-74 -39 -418 -242q-109 -63 -131 -49q-10 6 -16 25z" />
<glyph unicode="?" horiz-adv-x="632" d="M35 180q-33 37 10 65.5t74 0.5q14 -12 14 -39q0 -41 -35.5 -51.5t-62.5 24.5zM88 1182q0 27 61.5 87t155.5 114.5t166 54.5q43 2 92 -36t49 -73q0 -66 -57 -164t-156 -196q-102 -106 -155.5 -196.5t-38.5 -139.5q8 -37 -16.5 -71t-51.5 -23q-29 10 -41 71 q-27 137 223 418q115 125 147 193.5t-5 105.5q-18 18 -34.5 17t-68.5 -23q-31 -14 -72.5 -48t-72.5 -69q-80 -94 -113 -61q-12 10 -12 39z" />
<glyph unicode="@" horiz-adv-x="1083" d="M21.5 369.5q-11.5 76.5 33.5 167.5q37 76 37 89t62 146q82 176 161.5 259t247.5 167q82 39 213 41q96 0 121 -8t64 -60q55 -68 55 -104.5t23.5 -60t22.5 -201.5t-26 -281q-23 -94 -82 -176t-110 -92q-86 -16 -174 32t-88 111q0 39 -23 58q-18 14 -49 -22t-84 -102.5 t-102 -101.5q-29 -20 -48.5 -43.5t-19.5 -37.5q0 -37 43 -100.5t123 -124t192.5 -72t249.5 56.5q92 49 103 27q8 -18 -62 -66q-80 -53 -151.5 -78.5t-172 -14.5t-200.5 79q-37 25 -126 133t-89 129q0 10 -35 47t-66.5 82t-43 121.5zM186 444q6 -154 27 -159q25 -8 129 95 t150 181q41 74 76.5 203t21.5 164q-10 27 -42 24.5t-83 -32t-111 -82.5q-102 -94 -137 -174t-31 -220zM492 1061q0 -16 139 -14q102 2 122.5 -4.5t24.5 -34.5q6 -35 -22.5 -77t-38.5 -81q-14 -55 -39 -107q-33 -63 -29 -174.5t41 -169.5q72 -117 168 -14q66 68 107 215.5 t24 261.5q-12 96 -30.5 139.5t-69.5 100.5q-37 43 -60.5 54t-80.5 9q-61 0 -158.5 -40t-97.5 -64z" />
<glyph unicode="A" horiz-adv-x="722" d="M35 289q-15 9 -15 32q0 24 16 63q32 77 79 157t47 94q0 18 28 80q26 53 44 210q10 93 11 163q0 48 -5 86q-3 22 -3 40t3 34q6 30 15 49.5t21.5 30.5t19.5 15.5t9 4.5q16 0 69.5 -77t74.5 -130q10 -33 20 -99.5t20.5 -119t26.5 -64.5q27 -20 27 -123q0 -88 31.5 -152.5 t84.5 -86.5q29 -10 37.5 -23.5t5.5 -44.5q-4 -31 -16 -41t-49 -14q-37 -2 -54.5 7t-39.5 48q-16 27 -30.5 60.5t-23 58t-16.5 50.5t-16 40t-18.5 22.5t-26 4t-37.5 -20.5q-47 -37 -84 -37q-29 0 -49.5 -29.5t-87.5 -164.5q-39 -80 -68 -109t-51 -14zM328 862q-3 -26 -3 -45 q0 -47 17 -57q12 -8 23 -8q23 0 34 43q4 19 4 44q0 16 -2 35q-11 104 -32 104q-2 0 -4 -1q-27 -12 -37 -115z" />
<glyph unicode="B" horiz-adv-x="552" d="M21.5 1309.5q1.5 17.5 23.5 40.5q27 32 53 34h5q24 0 57 -20q20 -14 37.5 -9t54.5 36q54 46 102 46q44 0 82 -38q27 -25 31 -53q2 -11 1 -31q0 -31 -3 -82q-10 -129 -41 -195l-31 -65l70 -96q49 -70 58 -104t11 -150q0 -94 -8 -134t-33.5 -70t-93.5 -77q-49 -33 -101 -44 t-101.5 -14t-75.5 -14q-11 -5 -22 -5q-21 0 -40 18q-17 19 -17 51q0 30 11 104q20 133 20 299v43q-3 192 -30 234q-18 29 -18 45t18 55q25 47 26 81t-10.5 51.5t-24 31.5t-11 31.5zM144 488q3 -28 4.5 -40t10.5 -20t16 -10t25.5 -10.5t35.5 -22.5q18 -12 36.5 -6t59.5 37 q66 48 96 108q25 50 24 93v15q-6 48 -16 79t-22 45q-36 45 -62 46h-1q-26 0 -52 -42q-12 -18 -37.5 -35.5t-50.5 -24.5q-43 -12 -51 -29.5t-13 -113.5q-4 -27 -4 -49q0 -11 1 -20zM180 1019v-24q0 -78 15 -88q3 -2 7 -2q17 0 56 33q39 31 85 168q34 102 34 150q0 17 -4 28 q-10 29 -35 29t-71 -51.5t-66 -100.5q-19 -41 -21 -142z" />
<glyph unicode="C" horiz-adv-x="741" d="M23 1067q4 43 22 78q29 59 121 130t151 81q64 12 113 39q48 25 96 25q46 0 92 -23q94 -47 97 -144v-6q0 -52 -34 -59q-5 -1 -10 -1q-32 0 -71 42q-41 43 -94 45h-5q-52 0 -132 -39q-139 -63 -191.5 -129t-52.5 -174q0 -78 31.5 -198t66.5 -169q33 -47 33 -72.5 t55.5 -65.5t104.5 -50q11 -2 23 -3q43 0 85 32q54 38 85.5 91.5t60 98.5t41.5 45t13 -20q0 -32 -34 -117q-53 -129 -102 -172q-34 -29 -102 -41q-37 -7 -75 -7q-32 0 -63 5q-49 8 -74.5 30.5t-78.5 104.5q-154 229 -170 508q-4 55 -4 93q0 25 2 42z" />
<glyph unicode="D" horiz-adv-x="614" d="M49 1255q-31 69 -31 109q0 48 45 53q4 1 8 1q37 0 72 -50l39 -55l49 37q49 36 121 61q69 26 107 26q7 0 13 -1q38 -6 71 -54q25 -35 35 -80t14 -151q3 -56 3 -95.5t-3 -64.5q-6 -49 -31 -112q-31 -80 -95.5 -171.5t-74.5 -111.5q-35 -63 -73.5 -120.5t-52 -82 t-13.5 -51.5q0 -41 -27.5 -62.5t-52.5 -0.5q-18 14 -27.5 208.5t-30 432t-65.5 335.5zM200 1011q1 -40 2 -59.5t5 -67.5t6 -67q20 -274 31 -282q4 -4 9 -4q18 0 49 46q40 60 84 146t56 100q23 27 47 176q14 98 14 138.5t-18 89.5q-23 63 -47 75q-8 4 -18 3q-23 0 -62 -17 q-33 -14 -57.5 -31.5t-41.5 -41t-29.5 -42t-18.5 -51t-9 -52t-2 -59.5z" />
<glyph unicode="E" horiz-adv-x="698" d="M21 486.5q-3 41.5 18 56.5q33 20 73 135t56 233q13 105 13 144v5q-1 36 -21 68q-29 49 -29 84t29 68q28 29 50 29h6q24 -4 83 -54l72 -59l80 43q78 43 98 76q18 33 44 33q7 0 15 -2q36 -12 43 -64q4 -41 -10 -56.5t-86 -47.5q-102 -47 -147 -48q-55 0 -92 -48t-48 -132 q-4 -35 -4 -59q0 -47 14 -57q6 -4 17 -4q29 0 92 32q123 56 171 72q25 8 42 9q15 0 23 -7q23 -25 2 -54.5t-82 -56.5q-174 -76 -248 -117.5t-82 -68.5q-10 -39 -1 -55q5 -8 46 -8q34 0 94 6l131 10l101 -80q93 -76 93 -110q0 -17 -22 -23q-10 -4 -22 -6h-6q-47 0 -109 59 q-27 27 -58.5 45.5t-47.5 18.5q-37 0 -111 -34t-98 -63t-66 -29h-12q-51 4 -78 40q-23 35 -26 76.5z" />
<glyph unicode="F" horiz-adv-x="704" d="M21 382q2 30 16 63.5t37.5 81.5t45 93.5t37 98.5t17.5 94q0 63 10.5 107.5t19.5 62.5t7 49t-21 80q-33 82 -32 145q-2 43 6 54.5t41 15.5q37 4 48 -8t28 -80q10 -45 26 -72q12 -16 21.5 -15t33.5 24q37 33 37.5 48t94.5 115q76 80 95 91.5t42 -13.5q27 -25 15.5 -48 t-89.5 -109q-100 -106 -131 -158l-76 -119q-18 -29 -27.5 -54.5t-3.5 -35.5q8 -15 41 -15q22 0 54 6q82 16 139 54q57 39 86 45t43 -16q3 -6 3 -12q0 -25 -41 -63q-52 -48 -136 -90t-152 -50q-41 -6 -61.5 -18.5t-32.5 -37.5q-114 -242 -154 -307q-32 -51 -57 -51 q-7 0 -14 4q-18 10 -16 40z" />
<glyph unicode="G" horiz-adv-x="690" d="M24 536q-3 33 -3 74q0 71 11 166q19 148 46 201q28 53 28 84t47 87t72 56q14 0 25.5 10.5t44.5 36t84 52.5q80 43 126 43h9q47 -5 98 -62q47 -51 56 -114q1 -13 1 -24q0 -46 -28 -69q-17 -15 -34 -15q-40 0 -79 81q-23 45 -38 56t-50 7q-41 -4 -92 -40t-65 -42 q-16 -8 -46 -51t-57 -94q-39 -82 -51 -133t-18 -168l-11 -174l60 -68q37 -41 61.5 -53t67.5 -12q68 0 86 22q20 29 47 107q20 58 20 80q0 7 -2 10q-8 16 -69.5 16t-83.5 29q-16 18 -13.5 29.5t31.5 33.5q41 35 79 35t105 45q57 40 100 40h7q45 -3 51 -48q1 -6 1 -12 q0 -35 -30 -70q-35 -41 -56 -108q-14 -46 -14 -80q0 -16 3 -29q2 -9 2 -19q0 -38 -38 -84q-48 -59 -122 -92q-67 -31 -100 -31q-1 0 -1 1q-34 0 -99 30q-70 33 -114 101.5t-55 158.5z" />
<glyph unicode="H" horiz-adv-x="761" d="M20.5 374.5q-2.5 16.5 14.5 61.5q55 168 85 321.5t34 240.5t4 168t4 106q2 6 43 0q27 -4 33 -25q4 -17 4 -91q0 -49 -2 -124l-7 -233l170 12q168 14 180.5 26.5t18.5 211.5q4 121 11.5 162.5t25.5 54.5q18 10 33.5 6t38.5 -27q29 -29 30.5 -43t-20.5 -59 q-31 -63 -43 -424q-4 -135 -9 -215t-13 -129t-17.5 -63.5t-28.5 -8.5q-20 6 -26 211l-4 203l-95 -8q-154 -16 -212 -27.5t-68 -28.5q-18 -23 -39 -100.5t-22 -122.5q0 -55 -35 -88q-27 -25 -37.5 -25t-30.5 21q-18 20 -20.5 36.5z" />
<glyph unicode="I" horiz-adv-x="706" d="M20 254q-2 27 14.5 35t92.5 16q98 12 121.5 44t23.5 161q0 123 33 295q52 254 52 307q0 7 -1 10q-4 12 -22 19q-49 16 -69.5 33.5t-24.5 46.5q-4 25 3 29.5t38 -3.5q14 -8 34.5 -4t28.5 9t44 20.5t83 27.5q57 18 96 35t55.5 24t34.5 7q37 0 27 -35q-8 -27 -41 -45 q-88 -49 -137 -124t-82 -210t-62 -391q-11 -94 -11 -139q-1 -31 5 -38q8 -11 36 -11q16 0 40 4q92 15 116 15h2q20 -1 21 -21q0 -27 -145 -78q-164 -59 -220 -73q-40 -10 -79 -11l-33 2q-39 2 -54 11t-20 32z" />
<glyph unicode="J" horiz-adv-x="1261" d="M22 310q9 157 37 202q22 34 34 34q17 0 18 -63q-2 -41 -9 -104q-10 -76 -10 -116q0 -36 8 -44q3 -3 9 -3q19 0 63 35q59 46 112.5 110.5t53.5 93.5q0 16 36 82.5t36 87.5q0 20 45 118.5t45 135.5q0 23 12 50t22.5 45.5t12.5 34t-19.5 23.5t-70.5 8q-68 0 -99 26 q-19 15 -19 33q0 13 9 27q14 23 55 26q18 1 35 1l47 -2q6 -1 12 -1q35 0 67 20q38 22 48 79q6 33 50 40q9 1 17 1q32 0 56 -20q20 -18 38 -18l1 -1q19 0 70 17q55 20 109.5 50t74.5 30q31 0 111 63q62 46 87 46q9 0 13 -5q8 -10 -6 -37q-10 -14 -30.5 -32.5t-47.5 -37 t-56.5 -36t-59 -32.5t-53 -27.5t-38.5 -20.5l-16 -8l-64 -35q-33 -18 -84 -39q-39 -16 -89 -99t-50 -135q0 -27 -36 -108.5t-36 -114.5q0 -35 -36.5 -90t-36.5 -78q0 -33 -100.5 -165t-157.5 -175q-55 -43 -114 -57q-25 -6 -44 -6q-27 0 -43 12q-21 17 -21 112q0 30 2 67z " />
<glyph unicode="K" horiz-adv-x="815" d="M20 366.5q0 34.5 25 55.5q27 23 62.5 94.5t48.5 124.5q8 41 45 136t37 132q2 29 27.5 167t25.5 229q0 110 14 122q12 14 33.5 11.5t40.5 -21.5q21 -21 21 -89q0 -92 -38 -269q-26 -122 -26 -173q0 -28 8 -34q3 -2 7 -3q31 0 141 114q126 130 126 141q0 18 78 102 q71 77 86 77q1 0 2 -1q11 -6 11 -27q0 -17 -9 -47q-18 -62 -59 -123q-35 -47 -117 -132t-146.5 -149.5t-64.5 -74.5q0 -16 193 -244q116 -135 152 -190q35 -52 34 -79q0 -47 -26 -58q-2 -1 -4 -1q-20 0 -68 46q-54 51 -98 121q-59 88 -130 174t-110 112q-29 23 -49 23 q-13 1 -23 -9q-24 -24 -77 -151q-37 -90 -73 -128q-26 -27 -52 -27q-10 0 -21 4q-27 10 -27 44.5z" />
<glyph unicode="L" horiz-adv-x="696" d="M21.5 269.5q-1.5 13.5 12 36t28 41t33 61.5t28.5 94q39 193 65.5 381t26.5 268q0 119 12.5 132t38.5 7q26 -5 26 -139q0 -27 -1 -57q-6 -190 -41 -346q-35 -160 -35 -217.5t-22 -129.5q-11 -39 -11 -58v-7q4 -16 41 -49q66 -53 122 -70.5t177 -17.5q92 0 123 -6.5 t31 -22.5q0 -28 -80 -48q-73 -18 -155 -18h-17q-92 2 -125 27q-23 18 -79 32.5t-105 14.5q-53 2 -78 47q-14 31 -15.5 44.5z" />
<glyph unicode="M" horiz-adv-x="1361" d="M24 364q-3 11 -4 22q0 27 21 52q33 41 105.5 199t72.5 188q0 25 27 97q23 66 26 206v30q0 112 -20 132t-9 48t33 28q25 0 92.5 -61.5t67.5 -83.5q2 -49 47 -316.5t56 -283.5q4 -8 37.5 12t64.5 49t31 39q0 8 30.5 40t124 128t199.5 215q78 86 123 131t78 67.5t51 17.5 t35 -30q5 -9 5 -27q0 -39 -28 -118q-47 -131 -60 -202t-13 -212v-174l63 -65q61 -64 61 -94q0 -26 -45 -27q-39 0 -95 54t-71 103q-6 25 -6 111q0 69 4 176q4 95 4 150q0 27 -1 43q-3 50 -17 51q-20 0 -139 -128t-273 -313q-47 -55 -74.5 -86.5t-56 -56t-44 -31t-34 6 t-27.5 35t-21.5 74.5t-21.5 107.5t-24 149.5q-20 152 -36.5 152t-16.5 -21q0 -14 -20.5 -64t-71.5 -182.5t-107 -285.5q-20 -57 -34.5 -74.5t-40.5 -17.5q-36 0 -48 40z" />
<glyph unicode="N" horiz-adv-x="1208" d="M21 235v8q1 28 17 60q20 37 43 72t43.5 69.5t20.5 55.5q0 12 30 93t69 240.5t57 352.5q12 154 28.5 185.5t26.5 31.5q25 0 80.5 -54.5t69.5 -95.5q16 -43 30.5 -78.5t20.5 -47t12 -30t8.5 -23.5t8.5 -33.5t11 -53t19.5 -90.5t28.5 -135q27 -125 45 -270q6 -57 12.5 -94.5 t14.5 -51.5t14 -19t16.5 9t17.5 26.5t21.5 42t24.5 46.5q31 57 63.5 137t32.5 98q0 29 43 126t104.5 229.5t88.5 205.5q18 53 39 33q6 -6 6 -24q0 -32 -18 -100q-28 -108 -66 -191q-35 -68 -35 -97q0 -25 -45 -119t-45 -112q0 -25 -32 -99.5t-74 -173t-60 -155.5 q-23 -78 -53 -116q-23 -28 -45 -28q-7 0 -15 3q-27 10 -34 32q-10 27 -31 179q-14 111 -47 259t-53 281q-20 135 -59.5 242.5t-69.5 118.5q-1 1 -3 1q-16 0 -28 -94q-16 -139 -74.5 -350t-88.5 -301t-52 -147q-25 -78 -46.5 -99.5t-58.5 -3.5q-31 18 -34 49z" />
<glyph unicode="O" horiz-adv-x="784" d="M28 588q-8 59 -8 118q0 123 33 246q31 115 63 183.5t91 154.5q47 62 86 72q9 2 22 3q43 0 129 -24q188 -49 228 -204q12 -53 35.5 -139.5t32 -123t16.5 -108.5t8 -164q0 -129 -8 -176t-41 -109q-45 -88 -131 -162.5t-142 -74.5q-45 0 -149.5 73.5t-155.5 139.5 q-85 113 -109 295zM112 687q3 -99 25 -179q27 -92 108 -184.5t156 -116.5q43 -14 63 -14q6 0 10 1q18 5 65 50q83 80 113 164q29 79 28 206v17q-2 125 -39 298t-78 247q-18 35 -38.5 46t-71.5 13q-10 1 -19 1q-75 0 -136 -43q-69 -48 -108 -129q-38 -82 -60 -180 q-19 -86 -18 -173v-24z" />
<glyph unicode="P" horiz-adv-x="616" d="M20 434q-1 34 -1 62q1 50 3 82q4 50 8.5 58.5t11.5 22t14 32t13.5 94t10.5 204.5q6 180 13.5 243t23.5 77q27 20 38 19t38 -25q16 -18 44.5 -16.5t51 11t65.5 21.5t86 12q39 0 58.5 -14t50.5 -62l47 -75l-31 -111q-29 -111 -71 -182q-33 -55 -122 -145.5t-179 -157.5 q-47 -35 -55.5 -58.5t-8.5 -124.5q1 -109 -15 -145q-13 -30 -43 -30q-7 0 -14 1q-23 4 -28.5 39t-8.5 168zM162 901q-4 -66 -4 -111q0 -82 14 -92q2 -2 6 -2q23 0 98 74q2 2 7 6q104 102 144 181q36 72 36 151v16q-4 61 -13.5 75.5t-48.5 17.5q-31 4 -61.5 -12.5 t-79.5 -61.5l-88 -78z" />
<glyph unicode="Q" horiz-adv-x="921" d="M22 660q-1 14 -1 34q0 44 6 115q6 82 14 124t14 47t11.5 19.5t5.5 49.5q0 47 46 119.5t107 121.5q31 25 68 31t133 6q152 -2 202 -40t83 -173q30 -125 30 -186q0 -82 -35.5 -181.5t-72.5 -170t-37 -87.5q0 -29 74 -100q43 -43 73.5 -58.5t73.5 -19.5q84 -6 84 -35 q-2 -18 -39 -32q-18 -7 -40 -7q-86 0 -226 103l-96 72l-94 -52q-72 -39 -132 -39q-145 0 -223 222q-25 70 -29 117zM122 622q15 -85 75 -145q47 -47 89 -51h8q40 0 97 35q51 33 55 47q1 2 1 5q0 17 -23 67q-18 37 -19.5 55t11.5 35q23 27 44 24.5t56 -35.5q20 -18 33.5 -22 t27 12.5t26.5 50t32 99.5q27 90 27 174q0 33 -4 65q-15 113 -76 187q-27 33 -50.5 29.5t-76.5 -44.5q-43 -35 -54.5 -37t-29.5 23q-16 23 -28.5 24t-45.5 -18q-70 -37 -111 -120t-61 -224q-10 -83 -10 -146q0 -52 7 -90z" />
<glyph unicode="R" horiz-adv-x="923" d="M24 310q10 74 80 386q23 94 48.5 237.5t44 246t26.5 129.5q8 23 41 16q20 -5 25 -25q2 -11 2 -36q0 -23 -2 -58q-2 -37 -2 -62q0 -49 8 -49q11 0 90 64q71 55 151 73q28 7 50 7q40 0 59 -22q25 -29 35 -103q5 -34 5 -64q0 -37 -7 -69q-8 -45 -94 -187q-86 -144 -117 -162 q-18 -11 -18 -28q1 -13 11 -31q24 -41 111 -124q104 -101 163 -137q49 -30 96 -30q9 0 18 1q12 1 22 1q32 0 32 -14q0 -2 -1 -4q-4 -20 -57 -49l-66 -37l-82 43q-84 43 -141 99q-133 128 -247 192q-75 43 -114 42q-20 0 -32 -11q-20 -18 -21 -150q0 -76 -7 -111.5t-28 -62.5 q-27 -29 -36 -31t-31 21q-18 18 -18 59q0 18 3 40zM205 705l86 -17q40 -8 63 -8q14 0 22 3q22 7 75 58q35 35 49 53.5t18 27.5t13.5 38t27.5 62q20 45 27.5 80.5t4.5 59t-13.5 40t-22.5 22.5t-25 6q-29 0 -90 -53t-82 -96q-18 -39 -43.5 -54.5t-44 -16.5t-36 -31.5 t-23.5 -100.5z" />
<glyph unicode="S" horiz-adv-x="815" d="M20 302.5q0 12.5 25 12.5t51 -39q61 -84 173 -86h5q109 0 183 84q59 70 59 194v16q-4 136 -76 225q-51 66 -80.5 105.5t-61.5 89.5t-42 81t-16 70q-2 12 -3 23q1 26 11 46q14 30 39.5 65.5t69 70t104.5 77.5q57 39 97 44q8 1 17 1q37 0 95 -16q59 -16 95 -62 q31 -40 31 -84q0 -7 -1 -14q-8 -56 -48 -56h-1q-41 1 -76 60q-45 76 -95 76h-5q-54 -4 -152 -98q-60 -56 -72 -100q-4 -13 -4 -28q0 -33 22 -72q30 -56 119 -161q57 -72 104.5 -185.5t47.5 -190.5q0 -88 -51.5 -179.5t-128.5 -138.5q-75 -49 -135 -50h-3q-59 0 -151 42 q-55 25 -81 47.5t-40 58.5q-25 59 -25 71.5z" />
<glyph unicode="T" horiz-adv-x="972" d="M24.5 1204.5q8.5 28.5 32.5 59.5q29 37 45 41q4 1 11 1q20 0 63 -10q49 -12 133 -12q81 0 193 11q230 22 250 55q10 16 51 16q25 0 50.5 17.5t37.5 33t29.5 20.5t29.5 -18q3 -5 3 -12q0 -23 -41 -59q-52 -46 -139 -85.5t-159 -50.5q-55 -6 -80.5 -23.5t-68.5 -76.5 q-37 -49 -65.5 -103.5t-51 -123t-34 -110.5t-32 -131t-26.5 -116q-29 -119 -34 -165q-1 -14 -1 -25q0 -27 8 -41q18 -29 11 -57.5t-37 -40.5q-35 -12 -47.5 8t-12.5 90q0 96 49.5 338t86.5 328l57 131q17 39 17 58q0 11 -5 15q-2 8 -46 5t-84 -8t-91 -12t-66 -9 q-27 -2 -36 15.5t-0.5 46z" />
<glyph unicode="U" horiz-adv-x="1126" d="M20 830q-1 15 0 28q0 48 6 85q8 48 18.5 85t25 88.5t22.5 100.5q10 70 72 123q33 28 62 28q26 0 48 -22q21 -21 21 -46q0 -31 -33 -67q-45 -47 -88 -268q-1 -9 -1 -20q0 -53 33 -159q40 -126 97 -223q66 -106 66 -127q0 -20 41 -61t61 -41q25 0 119 51t147 94 q109 90 193 379q72 248 94 275q10 10 31 14q39 5 48 -25q2 -8 2 -18q0 -27 -18 -68q-27 -63 -66.5 -202.5t-53.5 -219.5q-18 -109 -69.5 -185.5t-178.5 -188.5q-96 -84 -139 -111t-82 -27t-121 27q-66 25 -145.5 79t-79.5 77q0 16 -29 82l-45 102q-16 37 -41 209 q-15 86 -17 152zM276 440q-8 -8 15 -53q20 -41 37 -43q10 -2 10 8q2 16 -16 45q-30 44 -43 44q-2 0 -3 -1z" />
<glyph unicode="V" horiz-adv-x="778" d="M21 445.5q2 19.5 22 52.5q23 40 42 196q13 110 13 187q0 33 -2 59q-22 256 -22 331q0 23 2 29q4 12 24 9q37 -7 69 -185q26 -143 25 -264q0 -30 -1 -59q-5 -67 -5 -102q0 -39 6 -40q11 0 212 199q297 293 339 293q13 0 13 -12q0 -21 -85 -115q-89 -100 -198.5 -213 t-202 -223.5t-92.5 -147.5q0 -20 -23 -56t-57 -45q-4 -1 -7 -1q-29 0 -60 59q-14 29 -12 48.5z" />
<glyph unicode="W" horiz-adv-x="1247" d="M23 1354q12 33 31.5 29.5t33.5 -37.5q16 -43 47 -293q21 -157 23 -231v-24q0 -65 -11 -141q-11 -77 -12 -119q0 -51 17 -51q8 0 24 15q27 20 97.5 115.5t70.5 107.5t25 41q35 37 80 171q45 135 79 247q34 111 43 110q18 0 22 -56q2 -19 2 -40q0 -43 -6 -96 q-9 -80 -30 -141q-32 -104 -32 -190q-1 -47 9 -89q26 -119 119 -137q14 -3 27 -3q29 0 55 16q37 22 51 67q6 20 154 224t162 259t43 102t29 78q2 41 22 53q31 18 29 -12q-2 -20 -21 -55q-28 -57 -28 -96q0 -29 -37 -110t-37 -99t-23.5 -61.5t-66.5 -110t-64 -103.5 q-68 -121 -110.5 -170t-94.5 -65q-31 -9 -61 -9q-46 0 -92 21q-76 35 -111 113q-35 75 -53 75q-16 0 -50 -29.5t-34 -45t-55.5 -94t-95.5 -123.5q-39 -43 -68 -47q-3 -1 -7 -1q-27 0 -63 29q-30 23 -30 53t20 168q21 137 21 257v26q-2 131 -31 317q-16 106 -16 153 q0 23 4 32z" />
<glyph unicode="X" horiz-adv-x="833" d="M25 406q12 20 43 10q2 -1 5 -1q26 1 83 67q63 74 104 157q29 57 45 57q10 0 23.5 21.5t35 60.5t31.5 58q12 18 13.5 37.5t-8 46t-20.5 55.5t-26.5 79t-27.5 103q-8 47 -21.5 100.5t-21 77t-12.5 56t3 36.5q10 27 29 29t33 -22q23 -35 84 -293q29 -125 51 -127q14 0 37 28 q16 20 102 185q66 121 97 121q16 0 27 -29q3 -8 3 -18q0 -27 -22 -68q-109 -215 -183 -324q-23 -35 -19.5 -57.5t46.5 -110.5q59 -119 164 -243q29 -35 51.5 -65t32.5 -49t6 -24q-2 -1 -5 -1q-24 0 -101 74q-86 83 -158 183q-73 104 -99 104q-3 0 -6 -1q-18 -10 -56 -55.5 t-46 -69.5q-12 -31 -128 -145.5t-134 -114.5q-27 0 -47.5 26.5t-7.5 45.5z" />
<glyph unicode="Y" horiz-adv-x="679" d="M31 1374q16 14 42.5 5t28.5 -31q14 -125 47 -275.5t54 -181.5q33 -47 33 -66q0 -24 9 -24q13 0 48 59q43 74 94 199q12 27 90 172q43 82 69.5 114.5t49.5 36.5q13 2 24 2q39 0 39 -23q0 -25 -75 -128q-39 -53 -39 -70q0 -25 -27 -59q-51 -68 -132 -268.5t-91 -221.5 q-45 -90 -57 -269q-4 -47 -4 -88q0 -114 26 -177q18 -43 18 -64q0 -18 -15 -18h-3q-16 2 -43 22q-45 39 -57 176q-4 43 -4 90q0 103 18 226l27 186l-51 113q-63 133 -106 333q-25 120 -25 178q0 40 12 52z" />
<glyph unicode="Z" horiz-adv-x="1058" d="M20 777.5q0 25.5 28 31.5t153 10q180 6 212.5 35t32.5 45q0 10 15.5 36t51.5 84t69 122q41 82 41 103q0 7 -5 7h-8q-85 -22 -161 -22q-18 -1 -36 1q-91 6 -143 43q-39 26 -39 61q0 12 5 26q8 22 36 22q34 0 97 -32q47 -27 82 -27q6 0 11 1q38 5 175 56q92 35 127 56 t67 21q24 0 46 -13q24 -13 24 -29q0 -13 -16 -29q-8 -8 -19 -14q-39 -27 -39 -88q0 -37 -8 -53.5t-35 -26.5q-35 -12 -90 -74.5t-86 -121.5q-25 -49 -49 -80q-27 -31 -10.5 -50.5t72.5 -19.5q61 0 61 -14t-47 -36t-81 -22t-71 -18t-37 -35q0 -12 -72.5 -131t-72.5 -134 t-36 -53t-36 -55q0 -14 -17 -47.5t-29.5 -61.5t-4.5 -36q4 -4 20 -4q29 0 97 12q100 20 244 20q25 0 51 -1q178 -4 305 -31q144 -30 144 -46q0 -18 -188 -18h-22q-43 0 -94 3q-51 1 -97 1q-222 0 -325 -24q-125 -29 -194 -29q-72 0 -84 31q-4 8 -4 16.5t3 16.5t11 23.5 t18.5 33t29 52t36.5 71.5q37 76 97 175t92 155q27 47 27 58q0 2 -1 3q-10 8 -166 8q-111 0 -134.5 5.5t-23.5 31z" />
<glyph unicode="[" horiz-adv-x="907" d="M28 151.5q15 55.5 44.5 83t78 123t48.5 127.5q0 16 14 48t38.5 80.5t64.5 169t79 284.5q25 96 29 140t-8 75q-18 51 -15.5 70.5t33.5 50.5q20 23 44 27t77 -3q45 -6 76 -15t40 -15t27.5 -6t51.5 10q66 16 75 -3.5t-41 -68.5q-31 -33 -56.5 -43t-70.5 -10 q-47 0 -69.5 -10.5t-44.5 -42.5q-37 -51 -37 -107q0 -25 -9.5 -61.5t-20.5 -72.5t-38.5 -118t-50.5 -149q-29 -92 -54.5 -162t-34.5 -94.5t-11 -36.5q0 -18 -44 -114.5t-44 -110.5q0 -23 55 -60t117 -57l141 -47q68 -25 107.5 -23t140.5 33q115 37 123 29q25 -23 -62 -64 q-41 -18 -94 -35q-41 -12 -55.5 -17t-45 -8t-42 -1t-55.5 9t-75.5 15.5t-114.5 26.5t-159 35q-137 31 -151 45q-16 18 -1 73.5z" />
<glyph unicode="\" horiz-adv-x="444" d="M29 1452q14 16 21 16t24 -16q20 -20 49 -117.5t29 -148.5q0 -43 69.5 -329t93.5 -351l35 -88q20 -49 20.5 -79t30.5 -63q20 -25 21.5 -34t-19.5 -29q-31 -29 -57.5 -8.5t-38.5 80.5q-8 37 -29.5 79t-50.5 152q-18 68 -38.5 133.5t-28.5 94t-8 57.5q0 61 -109 493 q-32 133 -14 158z" />
<glyph unicode="]" horiz-adv-x="1159" d="M29.5 -132q21.5 40 64.5 58q59 27 86 43q88 51 254 106.5t281 71.5l90 15l14 82q6 51 11.5 244.5t39.5 316.5q20 74 37 135t22 86t14 51.5t24 61.5q35 80 3 97t-188 3q-135 -12 -187 -2t-52 53q0 37 24.5 57.5t75.5 8.5q53 -10 199 -6q248 10 272 0q20 -6 23 -43v-13 q4 -37 -6.5 -62.5t-24.5 -36.5t-25.5 -26.5t-11.5 -31.5q0 -18 -37 -92t-37 -93q0 -25 -34 -145q-33 -119 -53.5 -402.5t1.5 -332.5q18 -41 -3 -72t-62 -30t-74 38q-23 25 -47.5 29t-95.5 -4q-291 -31 -516 -201q-61 -45 -78 -29q-25 25 -3.5 65z" />
<glyph unicode="a" horiz-adv-x="786" d="M21 450q-1 4 -1 9q0 25 13 80q14 61 37.5 107t39 68.5t15.5 35.5q0 23 94 134.5t129 129.5q39 23 55.5 23.5t47.5 -15.5q39 -20 45 -86q1 -10 1 -20q0 -55 -28 -105q-37 -70 -37 -162t37 -139q35 -45 35 -66q0 -41 72 -51q18 -2 35 -2q53 0 98 23q33 17 47 17q10 0 10 -9 q0 -21 -57 -72q-58 -50 -112 -50q-9 0 -19 1q-62 10 -138 94q-51 57 -66.5 65.5t-35.5 -14.5q-31 -31 -49 -77q-25 -64 -92 -64q-7 0 -14 1q-79 7 -132 81q-27 39 -30 63zM125 508q-1 -16 -2 -29q0 -53 20 -65q5 -3 11 -3q23 0 57 43q43 54 80 141t45 157q4 30 4 51 q0 37 -12 45q-2 1 -4 1q-18 -1 -64 -55q-52 -62 -96 -147q-33 -59 -39 -139z" />
<glyph unicode="b" horiz-adv-x="581" d="M20 299v6q0 52 43 137q45 88 46 117q0 20 18 83t61 209t84 306q58 225 78 258q14 23 41 23t37 -25q1 -2 1 -5q0 -32 -49 -192q-54 -178 -54 -206q0 -39 -37 -123q-36 -85 -36 -130q0 -25 11 -38q6 -8 15 -8q20 0 53 37q34 34 104 66q42 20 69 19q19 -1 29 -9 q28 -22 27 -107q0 -98 -82 -250t-178 -229q-84 -70 -132 -78q-7 -1 -14 -1q-41 0 -83 40q-50 47 -52 100zM160 276q6 -7 17 -7q19 0 53 23q52 36 102 101q39 51 88 163q41 93 41 120q0 5 -2 8q-8 12 -23 12q-22 0 -60 -27q-63 -46 -127.5 -133t-86.5 -163q-12 -41 -12 -65 q0 -23 10 -32z" />
<glyph unicode="c" horiz-adv-x="544" d="M25 360q-5 21 -5 48q0 98 64 272q82 224 164 289q49 38 119 38h10q76 -3 110 -51q31 -42 36 -82q1 -7 1 -13q0 -31 -20 -52q-25 -25 -57.5 -20.5t-43.5 30.5q-16 47 -34.5 58.5t-53.5 -3.5q-37 -16 -90 -96t-67 -137q-43 -170 -46 -208v-7q0 -35 27 -70t49 -42 q18 -5 69 -5h32q113 4 143 33q16 12 39 20.5t38 6.5t15 -15q0 -33 -120.5 -99.5t-182.5 -66.5q-55 0 -117.5 55.5t-78.5 116.5z" />
<glyph unicode="d" horiz-adv-x="868" d="M25 430q-4 34 -4 59t4 41q8 32 49 107q90 157 242 273q114 87 179 87q21 0 37 -10q25 -14 35.5 -12t26.5 22q23 33 22 50q0 16 49.5 121.5t82.5 158.5q34 54 60 54q3 0 5 -1q33 -6 36 -57v-9q0 -46 -28 -81q-29 -37 -58.5 -126t-39.5 -95q-16 -10 -16 -60q0 -31 -9.5 -51 t-31 -65t-41.5 -117q-22 -83 -22 -150q1 -38 7 -71q20 -92 82 -92q34 0 34 -15t-34 -45q-23 -22 -50 -22q-16 0 -34 8q-47 22 -71 86l-29 65l-55 -51q-53 -51 -54 -67q0 -18 -53 -67.5t-96 -70.5q-29 -16 -49.5 -16t-53.5 12q-55 25 -82.5 72t-39.5 135zM118 390 q12 -64 60 -72q3 -1 7 0q47 0 131 94q92 102 180 258q18 31 22 51t2 30.5t-15.5 39t-21.5 55.5q-11 34 -41 34q-33 0 -88 -40q-115 -82 -188 -222q-20 -39 -31 -75q-20 -63 -20 -113q-1 -21 3 -40z" />
<glyph unicode="e" horiz-adv-x="614" d="M20 569v51q0 89 6 125q8 45 40 113q39 82 106.5 150.5t144.5 68.5q45 0 62.5 -13t42.5 -63l39 -75l-45 -70q-18 -29 -38 -49.5t-28 -20.5q-16 0 -81.5 -46t-121.5 -97q-49 -45 -49 -104q0 -90 69 -184.5t136 -94.5q31 0 105.5 48t115.5 95q31 36 50 36q5 0 10 -3 q11 -7 11 -20q0 -18 -20 -50q-34 -54 -100 -110q-95 -77 -187 -77q-13 -1 -26 1q-104 12 -186 127q-35 49 -43 89t-13 173zM158 793q4 -6 14 -7q18 0 80.5 63t62.5 81q0 22 -19 22q-11 0 -30 -8q-37 -14 -67 -51q-48 -57 -48 -84q0 -10 7 -16z" />
<glyph unicode="f" horiz-adv-x="819" d="M21.5 64q7.5 38 44.5 51q43 18 114 86q47 45 65.5 81.5t37.5 120.5q18 81 18 120q0 23 -5.5 32t-20.5 9q-25 0 -78 -29q-49 -27 -71 -31t-48 8q-36 20 -36 60q0 6 1 12q4 35 19.5 43t87.5 12q100 4 149 45q35 29 43 62.5t12 179.5q8 203 20.5 224t69.5 56q37 23 72 27 q12 1 29 1q35 0 92 -5q109 -8 139.5 -22.5t18.5 -49.5q-9 -26 -62 -26q-3 0 -7 1q-58 1 -128 3h-9q-63 0 -91 -27q-14 -12 -29.5 -54t-26 -92.5t-16.5 -98.5q-4 -29 -4 -52q0 -15 2 -29q4 -32 16 -32q29 0 111 22.5t94 34.5q16 16 50 16t34 -16q0 -18 -54 -54t-102 -46 q-53 -14 -112 -50q-37 -25 -49.5 -48t-18.5 -91q-18 -160 -42.5 -223.5t-98.5 -144.5q-129 -139 -189 -139q-9 0 -16 3q-33 12 -25.5 50z" />
<glyph unicode="g" horiz-adv-x="665" d="M23 -25q16 188 161 326q105 100 138 100q6 0 10 -4q1 -1 1 -4q0 -19 -89 -110q-155 -158 -155 -270q0 -15 3 -29q20 -86 55 -98q6 -3 14 -3q33 0 85 47q55 53 98 177t49 258l6 141l-63 -6q-39 -2 -58.5 6t-41.5 39q-47 63 -50 105q-1 4 -1 8q0 44 32 139q70 212 152 245 q36 15 84 15q4 0 9 -1q54 -1 68 -20q27 -31 71 -119t44 -106q0 -29 -55 -79t-73.5 -110.5t-37.5 -238.5q-39 -401 -182 -528q-71 -65 -134 -65q-53 0 -100 44q-33 33 -39 56q-3 13 -3 37q0 20 2 48zM305 629q25 -25 35 -22t43 40q27 31 35 62.5t8 105.5q0 117 -14 117 q-27 0 -62 -54.5t-51 -121.5q-15 -62 -15 -84t21 -43z" />
<glyph unicode="h" horiz-adv-x="731" d="M26.5 365.5q-10.5 25.5 2.5 44.5q12 14 26.5 65t32.5 123t31 107q23 63 49.5 234t36.5 300q6 92 16 132t33 63q27 29 37 30.5t28 -14.5q14 -16 16.5 -25.5t-3.5 -29t-16.5 -45t-21.5 -85t-18 -135.5q-10 -154 -14 -198q-2 -33 10 -38q7 -3 31 -3q19 0 49 2q24 1 42 1 q30 0 42 -4q18 -7 37 -42q16 -33 29.5 -107.5t26 -143.5t50 -142.5t97.5 -112.5q39 -27 34 -45t-48 -16q-70 0 -136.5 88t-91.5 215q-34 164 -68 194q-10 9 -22 9q-31 0 -80 -52q-33 -35 -78 -168t-46 -192q0 -25 -19 -51.5t-39 -26.5q-6 0 -25.5 21.5t-30 47z" />
<glyph unicode="i" horiz-adv-x="284" d="M28 658q22 184 85 280q35 54 56 54q3 0 7 -2q10 -5 10 -21q0 -21 -16 -62q-58 -141 -58 -354q0 -74 7 -156q2 -35 -9.5 -48t-30 -2t-34.5 44q-25 54 -25 148q0 53 8 119zM109 1370q29 33 52 31t62 -43q39 -42 42 -100v-9q0 -51 -34 -73q-32 -25 -54 -25q-5 0 -9 1 q-24 7 -55 56q-32 52 -32 94q0 39 28 68z" />
<glyph unicode="j" horiz-adv-x="675" d="M20 166q0 37 27 39q33 -2 41 -43q6 -31 34 -56.5t54 -25.5q20 0 67.5 50t47.5 73q0 25 28 67q35 51 75 235.5t52 338.5q13 189 31 209q18 25 44 21.5t42 -34.5q6 -12 6 -35q0 -39 -17 -109q-26 -114 -26 -153q0 -59 -50 -245.5t-99 -309.5q-33 -88 -82 -152.5t-82 -64.5 q-66 0 -129.5 63.5t-63.5 131.5zM528 1206q0 32 30 50q32 18 43 18t32 -21q24 -24 24 -50q0 -18 -12 -37q-18 -28 -44 -28q-16 0 -36 11q-37 19 -37 57z" />
<glyph unicode="k" horiz-adv-x="1015" d="M26 410q16 50 68 106q72 74 72 100.5t31 71.5q59 90 96 244.5t58.5 292t39.5 172.5q30 59 52 59q15 0 26 -29q1 -4 1 -14q0 -45 -30 -213q-37 -204 -67 -301q-15 -48 -15 -64.5t29 -31.5q22 -12 53 -12q51 0 128 32q124 51 233.5 141.5t124.5 161.5q12 63 32 63 q13 0 31 -28q8 -12 8 -28q0 -45 -58 -121q-79 -106 -202 -197.5t-209 -103.5q-53 -7 -53 -66q0 -20 6 -47q6 -29 137 -168q122 -129 122 -164q0 -5 -3 -8q-6 -6 -20 -6q-47 0 -178 127t-144 182q-10 49 -45 85q-26 27 -45 27q-6 0 -12 -3q-20 -14 -55 -88 q-60 -126 -114 -192q-43 -51 -69 -52q-7 0 -14 4q-21 12 -21 38q1 13 6 30z" />
<glyph unicode="l" horiz-adv-x="348" d="M19.5 335q5.5 36 21.5 69.5t33.5 75.5t19.5 63q0 25 35 108.5t35 132.5q0 43 37 205t45 260q14 127 22 141.5t34 -7t26 -130.5q0 -102 -43 -332.5t-80 -324.5q-37 -90 -58 -162q-20 -70 -53 -115q-26 -35 -45 -35q-5 0 -10 3q-25 12 -19.5 48z" />
<glyph unicode="m" horiz-adv-x="1161" d="M47 291q27 55 37 143q12 100 59 298t70 241q20 43 36.5 48t39.5 -22q7 -9 7 -27q0 -34 -26 -100q-31 -82 -31 -114q0 -21 13 -21q27 0 127 107q79 82 111 104q27 18 55 18q5 0 10 -1q37 -4 46 -16.5t13 -61.5q6 -95 22 -99h3q19 0 90 70q59 56 88 74q24 14 50 15 q6 0 12 -1l55 -6l4 -240q2 -145 8 -200.5t23 -73.5q28 -32 28 -52q0 -19 74 -67q59 -41 67.5 -57.5t-18.5 -38.5q-15 -13 -35 -13q-54 0 -143 93q-66 70 -86 138.5t-20 213.5q0 158 -29 162q-18 0 -66 -51q-57 -61 -109 -185.5t-73 -242.5q-4 -35 -37 -54q-13 -7 -24 -7 q-20 0 -38 22q-18 24 -18 55q0 14 4 29q36 141 52 293q7 69 7 110q0 49 -11 55q-3 2 -7 2q-21 0 -75 -54q-64 -64 -119 -148t-55 -119q0 -14 -31 -78.5t-43 -159.5q-14 -96 -39 -128q-15 -19 -36 -20q-14 0 -32 9q-38 20 -38 64q0 38 28 94z" />
<glyph unicode="n" horiz-adv-x="731" d="M20 352q4 66 28 136.5t46.5 119.5t22.5 70q0 16 29.5 82.5t37.5 134.5q10 82 27 113q16 31 40.5 31.5t47.5 -27.5q14 -16 13 -33.5t-19 -56.5q-16 -37 -29.5 -83t-14.5 -75t9 -31q8 0 92 80q101 97 149 97q19 0 29 -15q18 -25 18 -84q0 -24 -3 -53q-4 -40 -4 -81 q-1 -121 31 -250q42 -173 114 -251q25 -28 25 -45q0 -9 -7 -16q-14 -15 -35 -15q-15 0 -35 8q-46 18 -67 58l-57 106q-20 41 -51 191.5t-31 218.5q0 55 -24 59h-4q-24 0 -62 -43q-37 -45 -104.5 -171t-104.5 -218q-16 -41 -29.5 -53t-38.5 -10q-29 4 -35 20q-4 12 -4 55v31z " />
<glyph unicode="o" horiz-adv-x="591" d="M20 498q0 49 10.5 91t34 106.5t35.5 111.5q47 164 133 256q41 43 65 47h6q24 0 73 -25q50 -27 78 -27h1l1 1q28 0 71 -45q29 -31 36 -63.5t7 -131.5q0 -90 -9 -140t-34 -110q-39 -88 -70.5 -129t-101.5 -92q-71 -51 -137 -51q-71 0 -135 59q-41 41 -52.5 65.5t-11.5 76.5 zM111 522q0 -47 37.5 -91t78.5 -44q98 0 181.5 131t83.5 287q0 118 -23 141q-21 21 -61 21q-11 1 -24 -1q-58 -8 -112 -40q-37 -27 -58 -63t-52 -132q-49 -154 -51 -209z" />
<glyph unicode="p" horiz-adv-x="927" d="M22.5 139.5q8.5 30.5 22.5 62t29.5 66.5t15.5 56q0 27 18.5 90t41.5 112q16 39 20 273l2 233h55q39 0 45 -12q4 -7 4 -31q0 -18 -2 -47q-1 -25 -1 -44q0 -63 15 -68h2q22 0 107 85q109 109 168 136q58 25 99 25q36 0 58 -19q46 -39 46 -165v-11q-2 -74 -14.5 -119 t-44.5 -111q-57 -109 -76 -131q-12 -14 -12 -24q0 -18 36 -27q33 -8 107 -14q131 -12 139 -21q23 -23 -31 -39q-27 -8 -61 -8q-154 0 -287 -39t-207 -106q-37 -31 -90 -37q-37 -4 -48 -17.5t-15 -54.5q-6 -43 -18.5 -52t-55.5 -9t-59.5 18.5t-8 49zM215 365q3 -3 10 -3 q26 0 107 31q80 33 170 117t106 141q8 25 31 74t36 94q10 34 10 68q0 10 -1 20q-4 57 -30 71q-10 6 -25 6q-24 0 -60 -15q-45 -18 -140 -129t-132 -187q-41 -84 -67 -179q-19 -65 -19 -92q0 -13 4 -17z" />
<glyph unicode="q" horiz-adv-x="595" d="M22 588q-2 17 -2 35q0 41 13 82q31 88 115 194t139 129q27 8 45 10t31.5 -3t23.5 -13t28.5 -20.5t37.5 -22.5q45 -23 49 -74v-9q0 -46 -37 -87q-59 -63 -91 -160.5t-32 -210.5q0 -88 9 -126t44 -93q55 -86 72.5 -86t69.5 -18q35 -14 38 -20.5t-24 -24.5q-23 -18 -51 -18 q-65 0 -154 98q-55 59 -66.5 86.5t-11.5 117.5q0 141 -34 141q-4 0 -7 -1q-8 -4 -18 -13q-19 -21 -58 -21h-14q-49 5 -74 34q-33 35 -41 94zM118 681q-9 -30 -9 -53q0 -40 26 -61q16 -14 30.5 -7t49.5 46q43 53 53.5 89t38.5 75q32 46 32 81q0 6 -1 11q-6 43 -32 43 q-32 0 -93 -65q-72 -78 -95 -159z" />
<glyph unicode="r" horiz-adv-x="708" d="M20 325.5q0 12.5 6.5 38t13.5 60.5t14 103.5t12 150.5q6 119 15 161.5t32 69.5q34 37 58 37q5 0 9 -1q26 -9 27 -68q0 -39 7 -50.5t30 -7.5t204 10.5t211 20.5q18 8 24.5 6t2.5 -16q-12 -41 -103 -74t-188 -33q-119 0 -145 -33q-41 -45 -68.5 -126.5t-36.5 -176.5 q-8 -101 -29 -125q-8 -9 -20 -10q-19 0 -49 23q-16 12 -21.5 20t-5.5 20.5z" />
<glyph unicode="s" horiz-adv-x="610" d="M33 272q-14 30 -13.5 47t13.5 21q16 6 41 -23q37 -40 89 -40q5 1 13 1q62 6 109 58q64 69 64 115t-64 139q-74 109 -95 188q-13 49 -13 70t24 47q29 31 96.5 38t85.5 15q38 18 79 18q12 0 24 -1q54 -6 79 -35q25 -27 24 -37t-30 -39q-25 -25 -41 -29t-26.5 5.5t-32 18.5 t-47.5 9q-27 0 -77 -35t-50 -53q0 -14 75 -111q53 -68 65.5 -99.5t12.5 -110t-9 -106.5t-54 -73q-61 -63 -93 -63t-44 -19q-12 -20 -40 -20q-24 0 -61 15q-78 32 -104 89z" />
<glyph unicode="t" horiz-adv-x="743" d="M21.5 862.5q3.5 14.5 13.5 24.5t26.5 16t32.5 4q23 -2 33.5 17t22.5 80q31 147 102 247q33 45 55 45q18 0 29 -28q1 -2 1 -6q1 -30 -49 -144q-54 -127 -55 -149q-1 -35 63 -47q24 -5 50 -5q44 0 94 13q49 12 117 17q38 3 70 3q26 0 47 -2q49 -4 49 -16q0 -16 -21 -23 q-27 -8 -233 -49q-209 -41 -229 -61q-28 -25 -28 -123v-20q3 -116 21.5 -239.5t45.5 -242.5q8 -41 -15 -41q-35 0 -87 199.5t-52 331.5q0 86 -7 107.5t-38 31.5q-33 14 -47.5 29.5t-11 30z" />
<glyph unicode="u" horiz-adv-x="598" d="M25 739q-4 45 -4 90q0 67 9 131q15 108 46 150q16 20 41.5 19t36.5 -23q1 -4 1 -10q-1 -18 -9 -54q-12 -48 -26 -117t-14 -120q0 -80 34 -216t55 -143q5 -2 10 -2q33 0 80 69q55 79 102 202t59 225q14 120 61 120q19 0 44 -20q20 -18 25 -76q1 -13 2 -23q0 -38 -15 -54 q-16 -18 -37 -92q-31 -102 -31 -167q0 -66 31 -145q24 -64 24 -96q0 -17 -7 -25q-8 -8 -17 -8q-20 0 -42 32q-34 46 -33 75q0 33 -27 53q-16 10 -23.5 9t-13.5 -12t-10 -25.5t-13.5 -30t-21.5 -21.5q-18 -12 -45 -76q-18 -41 -31.5 -51t-44.5 -6q-49 4 -100 76t-51 133 q0 33 -4.5 47t-10.5 18.5t-15 45.5t-15 118z" />
<glyph unicode="v" horiz-adv-x="755" d="M33 647q-10 170 -10 264.5t10 114.5q10 23 43 10q20 -8 29.5 -108.5t11.5 -216t22.5 -210.5t59.5 -95q45 0 164.5 156.5t221 340.5t101.5 254q0 12 8 20.5t21 8.5q18 0 19 -46v-5q0 -43 -16 -103q-18 -62 -44 -106q-41 -68 -41 -82q0 -16 -82 -148.5t-152 -228.5 q-92 -129 -188 -189q-54 -34 -90 -35q-28 0 -45 21q-20 25 -43 383z" />
<glyph unicode="w" horiz-adv-x="1054" d="M21.5 1009.5q5.5 30.5 33.5 57.5q27 25 37 25t35 -23q20 -18 27.5 -45t7.5 -80v-15q0 -94 22 -300q24 -223 35 -223q29 0 90.5 105t112.5 233t51 186q0 49 27 84q16 23 27.5 25.5t31.5 -9.5q20 -14 28.5 -59t14.5 -191q14 -274 60 -274h1q35 0 103 139q47 96 68 141 l73 170q55 125 56 156q0 49 26.5 46t40.5 -40q4 -10 4 -22q0 -23 -35.5 -105t-35.5 -100q0 -16 -36 -76.5t-36 -91.5q0 -53 -96.5 -219t-143.5 -197q-13 -8 -25 -8q-43 0 -71 104q-14 47 -29 150q-16 94 -24 102q-6 6 -21.5 -8t-29 -34.5t-13.5 -34.5q-2 -12 -20.5 -50.5 t-57 -112t-67.5 -132.5q-20 -43 -37.5 -59.5t-42.5 -16.5q-43 0 -63.5 25.5t-20.5 80.5q0 88 -38 358.5t-52 284.5q-23 23 -17.5 53.5z" />
<glyph unicode="x" horiz-adv-x="739" d="M20 365q0 52 26 52q12 0 28 -11q10 -6 23 -6q59 0 182 130q45 47 58 62.5t18 40t-2 42t-16 76t-11 132.5q-2 34 -2 58q0 31 3 47q5 28 23 40q29 16 47.5 7t29.5 -46t11 -98q0 -104 23 -104q2 0 4 1q16 4 37 46q12 23 37.5 61.5t43 66t17.5 37.5q0 16 23 37q25 27 55.5 20 t37.5 -32t-14 -55q-28 -31 -28 -45q0 -4 -109.5 -175t-109.5 -208q0 -53 43 -157.5t80 -143.5q33 -35 35.5 -47.5t-15.5 -32t-29.5 -18.5t-44.5 28q-31 23 -69.5 92.5t-68.5 124.5t-42 55q-20 0 -107 -80q-86 -80 -150 -80h-2q-65 1 -65 83z" />
<glyph unicode="y" horiz-adv-x="700" d="M35 133q14 0 37 -35q16 -29 48 -35q9 -2 19 -2q23 0 49 11q35 14 73 44.5t73 77t59 99.5q18 39 26.5 66.5t8.5 46t-8 27.5t-25 9q-12 0 -31.5 17.5t-35.5 40.5q-27 39 -33 86t-6 213q0 150 5 202t23 70q23 23 53.5 16.5t43.5 -38.5q3 -7 3 -16q0 -27 -22 -72 q-31 -61 -32 -195v-9q0 -127 28 -151q15 -12 31 -12t35 12q37 23 47 68q6 33 28.5 119t37 149.5t14.5 95.5q0 52 12 64t49 8q25 -4 31 -22q4 -14 4 -56v-31q-4 -84 -46 -219t-44 -141q-18 -92 -56 -203.5t-67 -183.5t-29 -80q0 -23 -86 -102q-55 -55 -82.5 -68.5 t-76.5 -13.5t-72 10t-53 45q-49 56 -49 77q0 11 16 11z" />
<glyph unicode="z" horiz-adv-x="845" d="M27 625q-6 10 -6 18q0 25 57 35q39 10 104 10q92 2 121 12.5t80 61.5q66 65 66 100v6q-2 25 -32 31t-155 6q-119 0 -150.5 6.5t-35.5 26.5q-6 31 4 59q6 17 34 21q10 1 27 2q30 0 82 -4q350 -27 395 -47q33 -23 35 -66q0 -33 -27.5 -57.5t-59 -39.5t-59.5 -48t-28 -78 q0 -29 -27.5 -53.5t-61.5 -40t-63.5 -41t-33.5 -58.5q-1 -8 -1 -15q0 -44 30 -70q36 -30 106 -31q51 0 89 19.5t136 98.5q128 103 160 103q5 0 8 -2q3 -3 3 -8q0 -30 -110 -134q-126 -120 -179 -153q-54 -35 -109 -35q-117 0 -238 158l-49 63l41 43q30 30 30 49q0 7 -4 13 q-16 20 -87 20q-80 0 -92 19z" />
<glyph unicode="{" horiz-adv-x="638" d="M22.5 8.5q4.5 24.5 8.5 38.5t15 53t17 66q14 49 41 90t50.5 63.5t40 55.5t12.5 71q-4 41 -16.5 51.5t-61.5 16.5q-51 6 -62.5 17.5t-15.5 60.5q-10 141 131 141q106 0 150.5 82t1.5 201q-20 55 5.5 109.5t111.5 144.5q76 78 114 78q115 0 -14 -109q-31 -27 -52.5 -51.5 t-35.5 -43t-19.5 -40t-8.5 -32.5t2 -29.5t6 -22.5t9.5 -20.5t10.5 -16.5q49 -102 27.5 -167.5t-130.5 -139.5l-77 -53l28 -58q35 -66 14.5 -147.5t-98.5 -202.5q-90 -137 -90 -178q0 -43 59.5 -85t116.5 -40q51 0 67.5 -15.5t-7.5 -43.5q-29 -33 -114 -26t-144 48 q-31 20 -49.5 35.5t-28.5 33t-14.5 29t0 36z" />
<glyph unicode="|" horiz-adv-x="221" d="M20 707q-3 489 11 512q12 20 29.5 20t29.5 -20q8 -14 9 -192.5t-2 -385.5t15.5 -409.5t59.5 -264.5q33 -47 28 -80.5t-44 -33.5t-62.5 38.5t-40 140t-23.5 261.5t-10 414z" />
<glyph unicode="}" horiz-adv-x="800" d="M23 -101.5q6 19.5 38.5 36t81.5 24.5q129 20 198 109.5t13 164.5q-27 35 -26 160q0 84 8 113t43 61q37 35 82 66q29 18 30 29.5t-24 58.5q-4 8 -8 12q-35 68 -39 130.5t10 105.5t28.5 107.5t10.5 121.5q-4 55 -12 71.5t-33 20.5q-39 6 -69.5 42t-20.5 63q12 27 78.5 25.5 t115.5 -29.5q61 -37 75.5 -101.5t-13.5 -181.5q-33 -131 -47 -152q-14 -16 1 -94t36 -98q14 -16 51 -21.5t73.5 -19.5t57.5 -51q20 -35 17 -48.5t-31 -37.5q-43 -35 -105 -35q-111 0 -165 -53.5t-34 -143.5q27 -106 37.5 -167.5t2 -107.5t-32 -71.5t-70.5 -54.5 q-37 -23 -68.5 -37t-48 -19.5t-61.5 -17.5t-70 -20q-47 -12 -66.5 -12.5t-31.5 12.5q-18 20 -12 39.5z" />
<glyph unicode="~" horiz-adv-x="1169" d="M22.5 618q12.5 44 90.5 121q98 102 136 102.5t50 18.5q14 23 108.5 9.5t135.5 -44.5q45 -33 55 -96q10 -66 52 -122t79 -54q113 4 266 147q109 104 109 123q0 6 8 12.5t18 6.5q37 0 9 -78q-16 -41 -47 -80q-33 -45 -114 -116.5t-99 -71.5q-12 0 -37 -20.5t-61 -37 t-81 -8.5q-53 10 -114.5 62.5t-61.5 89.5q0 33 -50 81t-97 60q-45 10 -106.5 -23.5t-90.5 -85.5q-61 -109 -123 -71q-47 31 -34.5 75z" />
<glyph unicode="&#xa2;" horiz-adv-x="651" d="M27.5 396.5q-19.5 105.5 15.5 242.5q43 172 203 279q70 47 84 70.5t24 105.5q12 111 0 129q-10 18 23 55t59 31q23 -4 25 -44t-17 -200l-12 -129l103 -68q43 -27 71.5 -52t24.5 -36q-8 -31 -61.5 -27.5t-88.5 35.5q-43 39 -57 27q-20 -20 -61 -258t-52 -266 q-18 -51 -8 -68q12 -23 65.5 -1t90.5 65q31 37 41 41t20 -19q16 -41 -38 -108.5t-117 -85.5q-70 -20 -89.5 -47t-31.5 -117q-16 -104 -51 -98q-14 2 -33 30q-20 31 2 135l22 103l-61 76q-76 94 -95.5 199.5zM118.5 549.5q-16.5 -121.5 10.5 -203.5q16 -53 42 -70.5t46 9.5 t38.5 92.5t18.5 114.5q0 47 29 171.5t19 147.5q-31 86 -138 -70q-49 -70 -65.5 -191.5z" />
<glyph unicode="&#xa3;" horiz-adv-x="1179" d="M20 311q0 35 55.5 73t125.5 50q70 10 140.5 44t98.5 69q29 37 59.5 111.5t24.5 101.5q-6 33 -118 55q-104 23 -127 36t-23 55t24.5 51.5t59.5 -2t68.5 -21.5t58.5 0t25 51q0 23 35.5 74t35.5 65q0 12 11.5 24.5t34 40.5t40.5 66q31 63 107 142q57 61 89 72.5t60 -15.5 q29 -31 18.5 -61.5t-57.5 -51.5q-68 -29 -119 -92t-110 -188q-49 -104 -32.5 -137t118.5 -33q250 -2 356 67q66 45 78 23q8 -16 -24 -53q-92 -102 -349 -121l-153 -12l-37 -129q-20 -68 -46 -118t-45.5 -70.5t-33.5 -37t-14 -28.5t41 -32t90 -39t59 -26q18 -12 127 -45 l133 -39q23 -6 13 -24q-14 -23 -107.5 -16.5t-140.5 30.5q-61 35 -194.5 83t-166.5 48q-20 0 -141 -53q-131 -57 -145 -4q-2 6 -3 16z" />
<glyph unicode="&#xa7;" />
<glyph unicode="&#xab;" horiz-adv-x="909" d="M20 551q-2 33 7.5 50t42.5 36q35 23 84 75t190 216q39 43 66.5 50t38.5 -24q4 -12 -34 -67.5t-161 -220.5q-4 -6 -16.5 -22.5t-15.5 -19.5t-9 -16.5t-4 -18.5t4 -20.5t9 -29t19.5 -36t28 -47t39.5 -59.5q35 -53 51.5 -64t38.5 1q61 33 68.5 -20.5t-33.5 -100.5 q-23 -25 -49 -25q-29 0 -81 51.5t-85 114.5q-33 59 -57 72q-84 39 -110.5 62.5t-31.5 62.5zM399 489q0 59 35 80q31 16 106.5 123t75.5 133q0 14 55.5 87t102.5 120q29 31 58.5 21.5t33.5 -47.5q8 -43 -73 -127q-57 -61 -144.5 -189t-87.5 -155q0 -8 82 -71t164 -135.5 t82 -105.5q0 -51 -76 -10q-31 16 -65 45q-68 57 -143 93t-124 36q-82 0 -82 102z" />
<glyph unicode="&#xad;" horiz-adv-x="915" d="M41 625q-51 57 33 57q35 0 96 -8q196 -27 479 20q111 16 178.5 12t67.5 -28q0 -23 -224.5 -74t-332.5 -51q-92 -2 -180 19.5t-117 52.5z" />
<glyph unicode="&#xbb;" horiz-adv-x="792" d="M20 324q0 35 136 129q106 74 131.5 115.5t-2.5 99.5q-20 37 -35 127q-10 57 -8 81t20 44q23 25 31 23.5t31 -30.5q33 -39 32 -82q0 -45 23.5 -107t54.5 -95q20 -25 25.5 -53.5t1.5 -42t4 -21.5q10 -6 86 57.5t76 77.5q0 16 -56 133q-72 150 -22 166q14 4 35 0 q33 -4 48 -25.5t42 -99.5q39 -121 69 -164q39 -57 25 -109t-70 -52q-33 0 -106.5 -42t-151.5 -108q-127 -104 -135 -33q-2 14 2 39q10 51 -10 51q-23 0 -109 -61q-121 -86 -157 -47q-10 10 -11 29zM356 440q0 -23 27 -2q8 9 8 15q0 8 -17.5 8t-17.5 -21z" />
<glyph unicode="&#xbf;" />
<glyph unicode="&#xc0;" />
<glyph unicode="&#xc1;" />
<glyph unicode="&#xc2;" />
<glyph unicode="&#xc4;" />
<glyph unicode="&#xc7;" />
<glyph unicode="&#xc8;" />
<glyph unicode="&#xc9;" />
<glyph unicode="&#xca;" />
<glyph unicode="&#xcb;" />
<glyph unicode="&#xce;" />
<glyph unicode="&#xcf;" />
<glyph unicode="&#xd1;" />
<glyph unicode="&#xd3;" />
<glyph unicode="&#xd4;" />
<glyph unicode="&#xd6;" />
<glyph unicode="&#xd9;" />
<glyph unicode="&#xda;" />
<glyph unicode="&#xdb;" />
<glyph unicode="&#xdc;" />
<glyph unicode="&#xdf;" />
<glyph unicode="&#xe0;" />
<glyph unicode="&#xe1;" />
<glyph unicode="&#xe2;" />
<glyph unicode="&#xe4;" />
<glyph unicode="&#xe7;" />
<glyph unicode="&#xe8;" />
<glyph unicode="&#xe9;" />
<glyph unicode="&#xea;" />
<glyph unicode="&#xeb;" />
<glyph unicode="&#xee;" />
<glyph unicode="&#xef;" />
<glyph unicode="&#xf3;" />
<glyph unicode="&#xf4;" />
<glyph unicode="&#xf6;" />
<glyph unicode="&#xf9;" />
<glyph unicode="&#xfa;" />
<glyph unicode="&#xfb;" />
<glyph unicode="&#xfc;" />
<glyph unicode="&#x2000;" horiz-adv-x="818" />
<glyph unicode="&#x2001;" horiz-adv-x="1637" />
<glyph unicode="&#x2002;" horiz-adv-x="818" />
<glyph unicode="&#x2003;" horiz-adv-x="1637" />
<glyph unicode="&#x2004;" horiz-adv-x="545" />
<glyph unicode="&#x2005;" horiz-adv-x="409" />
<glyph unicode="&#x2006;" horiz-adv-x="272" />
<glyph unicode="&#x2007;" horiz-adv-x="272" />
<glyph unicode="&#x2008;" horiz-adv-x="204" />
<glyph unicode="&#x2009;" horiz-adv-x="327" />
<glyph unicode="&#x200a;" horiz-adv-x="90" />
<glyph unicode="&#x2010;" horiz-adv-x="915" d="M41 625q-51 57 33 57q35 0 96 -8q196 -27 479 20q111 16 178.5 12t67.5 -28q0 -23 -224.5 -74t-332.5 -51q-92 -2 -180 19.5t-117 52.5z" />
<glyph unicode="&#x2011;" horiz-adv-x="915" d="M41 625q-51 57 33 57q35 0 96 -8q196 -27 479 20q111 16 178.5 12t67.5 -28q0 -23 -224.5 -74t-332.5 -51q-92 -2 -180 19.5t-117 52.5z" />
<glyph unicode="&#x2012;" horiz-adv-x="915" d="M41 625q-51 57 33 57q35 0 96 -8q196 -27 479 20q111 16 178.5 12t67.5 -28q0 -23 -224.5 -74t-332.5 -51q-92 -2 -180 19.5t-117 52.5z" />
<glyph unicode="&#x2013;" horiz-adv-x="1064" d="M44 625q-60 57 38 57q41 0 113 -8q230 -27 562 20q130 16 209 12t79 -28q0 -23 -263.5 -74t-389.5 -51q-108 -2 -211 19.5t-137 52.5z" />
<glyph unicode="&#x2014;" horiz-adv-x="2089" d="M66 625q-119 57 78 57q82 0 225 -8q459 -27 1123 20q260 16 418.5 12t158.5 -28q0 -23 -526.5 -74t-779.5 -51q-216 -2 -422.5 19.5t-274.5 52.5z" />
<glyph unicode="&#x201c;" horiz-adv-x="530" d="M20 1147q0 117 39 180q23 35 41.5 46t57.5 11q141 0 18 -116q-53 -49 -59 -89t24 -151q12 -41 -17.5 -52t-64.5 19q-39 35 -39 152zM370.5 1133.5q14.5 62.5 52.5 111.5t62 49q23 0 25 -23.5t-18 -43.5q-18 -18 -23 -123q-4 -125 -43 -119q-17 2 -35 29 q-35 57 -20.5 119.5z" />
<glyph unicode="&#x201e;" horiz-adv-x="630" d="M20 33q-4 12 34 78.5t86 123t67 41.5q27 -23 21.5 -55.5t-44.5 -116.5q-29 -63 -46 -79.5t-54 -16.5q-54 0 -64 25zM383 3q-2 32 29 75q37 53 36.5 66.5t40.5 93.5q23 45 39.5 61t38.5 12q37 -4 42 -48t-27 -81q-37 -39 -45 -57q-16 -45 -59.5 -99.5t-59.5 -54.5 q-33 0 -35 32z" />
<glyph unicode="&#x2022;" horiz-adv-x="690" d="M25 811q10 55 30.5 73.5t81.5 26.5q45 8 58.5 19.5t17.5 46.5q6 78 66 94q53 14 75 -33q4 -6 6 -16q8 -31 29 -37t109 -8q113 -2 142.5 -16.5t29.5 -68.5t-86 -153q-57 -68 -68.5 -94.5t-5.5 -77.5q10 -74 39 -104q63 -70 -17 -121q-31 -23 -47 -19.5t-63 37.5 q-57 45 -86 36t-68 -81q-57 -106 -116 -84q-27 10 -27 66.5t25 103.5q27 49 38 136l13 86l-95 65q-66 47 -78 65.5t-3 57.5zM289 668q0 -53 18.5 -69.5t48.5 11.5q27 29 11 78q-14 43 -33 56.5t-32 -8t-13 -68.5z" />
<glyph unicode="&#x202f;" horiz-adv-x="327" />
<glyph unicode="&#x205f;" horiz-adv-x="409" />
<glyph unicode="&#x20ac;" horiz-adv-x="1071" d="M20 694.5q-2 10.5 25 30.5q35 25 84 25q31 0 41 10t16 45q6 47 -3 59.5t-48 12.5q-45 0 -63.5 27.5t0.5 62.5q20 37 94 37q53 0 98 29.5t45 66.5q0 57 124 174t202 133q45 10 162 2q115 -8 184.5 -51t69.5 -105q0 -49 -28 -60t-69 24q-127 113 -259 99.5t-246 -155.5 q-82 -100 -62.5 -120.5t152.5 24.5q123 43 151 55q27 10 51.5 -16.5t14.5 -54.5q-10 -27 -54 -27q-43 0 -208.5 -56.5t-184.5 -76.5q-16 -23 -30 -98q-8 -55 -3 -65.5t41 -10.5q45 0 158 28.5t130.5 45t59.5 16.5t123 39q104 49 115 12q2 -8 -2 -18q-6 -18 -67 -43l-136 -50 q-33 -12 -87 -34.5t-95 -35.5t-108 -32q-80 -23 -94.5 -35t-12.5 -57q2 -39 20.5 -66.5t69.5 -72.5q141 -119 234.5 -106t183.5 159q88 141 96 84q2 -8 2 -19q0 -37 -58 -118.5t-128 -141.5q-51 -45 -77 -54t-77 -5q-80 10 -203.5 109.5t-162.5 185.5q-16 33 -33.5 57.5 t-28.5 24.5q-23 0 -76 55q-41 41 -43 51.5z" />
<glyph unicode="&#x25fc;" horiz-adv-x="1054" d="M0 0v1055h1055v-1055h-1055z" />
</font>
</defs>
</svg>
